<?xml version="1.0" encoding="utf-8"?>
<!-- Generator: Adobe Illustrator 16.0.0, SVG Export Plug-In . SVG Version: 6.00 Build 0)  -->
<!DOCTYPE svg PUBLIC "-//W3C//DTD SVG 1.1//EN" "http://www.w3.org/Graphics/SVG/1.1/DTD/svg11.dtd">
<svg version="1.1" xmlns="http://www.w3.org/2000/svg" xmlns:xlink="http://www.w3.org/1999/xlink" x="0px" y="0px" width="150px"
	 height="150px" viewBox="0 0 150 150" enable-background="new 0 0 150 150" xml:space="preserve">
<g>
	<clipPath  id="clip">
		<path fill="#FFFFFF" stroke="#000000" stroke-width="2" stroke-linecap="round" stroke-linejoin="round" stroke-miterlimit="10" d="
		M143.042,31.496H51.919v-2.835c0-3.313-2.687-6-6-6H29.491c-3.313,0-6,2.687-6,6v2.835H6.958c-3.313,0-6,2.687-6,6v14.511v3.384
		v57.113c0,3.313,2.687,6,6,6h136.084c3.313,0,6-2.688,6-6V55.391v-3.384V37.496C149.042,34.183,146.355,31.496,143.042,31.496z"/>
	</clipPath>
</g>
<g id="red">
	<path fill="#FFFFFF" d="M143.042,31.496H51.919v-2.835c0-3.313-2.687-6-6-6H29.491c-3.313,0-6,2.687-6,6v2.835H6.958
		c-3.313,0-6,2.687-6,6v14.511v3.384v57.113c0,3.313,2.687,6,6,6h136.084c3.313,0,6-2.688,6-6V55.391v-3.384V37.496
		C149.042,34.183,146.355,31.496,143.042,31.496z"/>
	<circle id="3circle" fill="#ba2713" cx="-36.833" cy="22.661" r="5.667" clip-path="url(#clip)">
	
		<animate  fill="freeze" accumulate="none" restart="always" values="5.667;130" additive="replace" begin="touch.mouseover" calcMode="linear" dur="0.5s" attributeType="XML" attributeName="r" xlink:href="#3circle">
		</animate>
	
		<animate  fill="freeze" accumulate="none" restart="always" values="130;5.667" additive="replace" begin="touch.mouseout" calcMode="linear" dur="0.5s" attributeType="XML" attributeName="r" xlink:href="#3circle">
		</animate>
	</circle>
	<circle id="2circle" fill="#ba2713" cx="37.705" cy="164.28" r="5.667" clip-path="url(#clip)">
	
		<animate  fill="freeze" accumulate="none" restart="always" values="5.667;130" additive="replace" begin="touch.mouseover" calcMode="linear" dur="0.5s" attributeType="XML" attributeName="r" xlink:href="#2circle">
		</animate>
	
		<animate  fill="freeze" accumulate="none" restart="always" values="130;5.667" additive="replace" begin="touch.mouseout" calcMode="linear" dur="0.5s" attributeType="XML" attributeName="r" xlink:href="#2circle">
		</animate>
	</circle>
	<circle id="1circle" fill="#ba2713" cx="173.833" cy="41.516" r="5.667" clip-path="url(#clip)">
	
		<animate  fill="freeze" accumulate="none" restart="always" values="5.667;130" additive="replace" begin="touch.mouseover" calcMode="linear" dur="0.5s" attributeType="XML" attributeName="r" xlink:href="#1circle">
		</animate>
	
		<animate  fill="freeze" accumulate="none" restart="always" values="130;5.667" additive="replace" begin="touch.mouseout" calcMode="linear" dur="0.5s" attributeType="XML" attributeName="r" xlink:href="#1circle">
		</animate>
	</circle>
</g>
<g id="appareil">
	
		<rect x="0.958" y="52.007" fill="#FFFFFF" stroke="#000000" stroke-width="2" stroke-linecap="round" stroke-linejoin="round" stroke-miterlimit="10" width="148.084" height="3.384"/>
	
		<circle fill="#FFFFFF" stroke="#000000" stroke-width="2" stroke-linecap="round" stroke-linejoin="round" stroke-miterlimit="10" cx="105.119" cy="75" r="30.119"/>
	
		<circle stroke="#000000" stroke-width="2" stroke-linecap="round" stroke-linejoin="round" stroke-miterlimit="10" cx="105.119" cy="75" r="26.753"/>
	
		<circle fill="#FFFFFF" stroke="#000000" stroke-width="2" stroke-linecap="round" stroke-linejoin="round" stroke-miterlimit="10" cx="141.768" cy="38.64" r="2.876"/>
	<path fill="none" stroke="#000000" stroke-width="2" stroke-linecap="round" stroke-linejoin="round" stroke-miterlimit="10" d="
		M0.958,89.57c0.468-14.765,12.816-26.355,27.581-25.888c11.812,0.374,21.084,10.253,20.71,22.064
		c-0.299,9.449-8.202,16.868-17.652,16.568c-7.56-0.239-13.494-6.563-13.254-14.121c0.191-6.049,5.25-10.797,11.297-10.604
		c4.838,0.153,8.636,4.199,8.483,9.037c-0.123,3.871-3.36,6.909-7.23,6.786c-3.096-0.098-5.527-2.688-5.429-5.784
		c0.078-2.478,2.15-4.421,4.627-4.343c1.982,0.063,3.538,1.72,3.475,3.701"/>
	<path fill="none" stroke="#000000" stroke-width="2" stroke-linecap="round" stroke-linejoin="round" stroke-miterlimit="10" d="
		M78.366,31.496c3.011,0,5.452,2.441,5.452,5.452c0,2.409-1.953,4.361-4.361,4.361c-1.928,0-3.49-1.562-3.49-3.489
		c0-1.542,1.25-2.791,2.792-2.791c1.233,0,2.233,1,2.233,2.233c0,0.987-0.801,1.787-1.787,1.787c-0.789,0-1.43-0.64-1.43-1.429"/>
	<path fill="none" stroke="#000000" stroke-width="2" stroke-linecap="round" stroke-linejoin="round" stroke-miterlimit="10" d="
		M149.042,112.504c0,3.313-2.687,6-6,6H6.958c-3.313,0-6-2.688-6-6V37.496c0-3.313,2.687-6,6-6h136.084c3.313,0,6,2.687,6,6V112.504
		L149.042,112.504z"/>
	
		<rect x="0.958" y="52.007" fill="#FFFFFF" stroke="#000000" stroke-width="2" stroke-linecap="round" stroke-linejoin="round" stroke-miterlimit="10" width="148.084" height="3.384"/>
	
		<circle fill="#FFFFFF" stroke="#000000" stroke-width="2" stroke-linecap="round" stroke-linejoin="round" stroke-miterlimit="10" cx="105.119" cy="75" r="30.119"/>
	
		<circle fill="#FFFFFF" stroke="#000000" stroke-width="2" stroke-linecap="round" stroke-linejoin="round" stroke-miterlimit="10" cx="105.119" cy="75" r="26.753"/>
		
		<circle fill="#000000" stroke="#000000" stroke-width="2" stroke-linecap="round" stroke-linejoin="round" stroke-miterlimit="10" cx="105.119" cy="75" r="20"/>
	
		<circle fill="#ffffff" stroke="#000000" stroke-width="2" stroke-linecap="round" stroke-linejoin="round" stroke-miterlimit="10" cx="141.768" cy="38.64" r="2.876"/>
	<path fill="none" stroke="#000000" stroke-width="2" stroke-linecap="round" stroke-linejoin="round" stroke-miterlimit="10" d="
		M0.958,89.57c0.468-14.765,12.816-26.355,27.581-25.888c11.812,0.374,21.084,10.253,20.71,22.064
		c-0.299,9.449-8.202,16.868-17.652,16.568c-7.56-0.239-13.494-6.563-13.254-14.121c0.191-6.049,5.25-10.797,11.297-10.604
		c4.838,0.153,8.636,4.199,8.483,9.037c-0.123,3.871-3.36,6.909-7.23,6.786c-3.096-0.098-5.527-2.688-5.429-5.784
		c0.078-2.478,2.15-4.421,4.627-4.343c1.982,0.063,3.538,1.72,3.475,3.701"/>
	<path fill="none" stroke="#000000" stroke-width="2" stroke-linecap="round" stroke-linejoin="round" stroke-miterlimit="10" d="
		M78.366,31.496c3.011,0,5.452,2.441,5.452,5.452c0,2.409-1.953,4.361-4.361,4.361c-1.928,0-3.49-1.562-3.49-3.489
		c0-1.542,1.25-2.791,2.792-2.791c1.233,0,2.233,1,2.233,2.233c0,0.987-0.801,1.787-1.787,1.787c-0.789,0-1.43-0.64-1.43-1.429"/>
	<path fill="none" stroke="#000000" stroke-width="2" stroke-linecap="round" stroke-linejoin="round" stroke-miterlimit="10" d="
		M51.919,31.496v-2.835c0-3.313-2.687-6-6-6H29.491c-3.313,0-6,2.687-6,6v2.835H51.919z"/>
		
	<a xlink:href="../../index.php?param_url=tatoueurprofil.php" target="blank">
		<path id="touch" opacity="0.01" fill="#FFFFFF" d="M143.042,31.496H51.919v-2.835c0-3.313-2.687-6-6-6H29.491c-3.313,0-6,2.687-6,6v2.835H6.958
		c-3.313,0-6,2.687-6,6v14.511v3.384v57.113c0,3.313,2.687,6,6,6h136.084c3.313,0,6-2.688,6-6V55.391v-3.384V37.496
		C149.042,34.183,146.355,31.496,143.042,31.496z"/>
	</a>
		
</g>

</svg>
