<?xml version="1.0" encoding="utf-8"?>
<!-- Generator: Adobe Illustrator 16.0.0, SVG Export Plug-In . SVG Version: 6.00 Build 0)  -->
<!DOCTYPE svg PUBLIC "-//W3C//DTD SVG 1.1//EN" "http://www.w3.org/Graphics/SVG/1.1/DTD/svg11.dtd">
<svg version="1.1" id="Calque_1" xmlns="http://www.w3.org/2000/svg" xmlns:xlink="http://www.w3.org/1999/xlink" x="0px" y="0px"
	 width="150px" height="150px" viewBox="0 0 150 150" enable-background="new 0 0 150 150" xml:space="preserve">
<g>
	
		<path fill="#FFFFFF" stroke="#000000" stroke-width="2" stroke-linecap="round" stroke-linejoin="round" stroke-miterlimit="10" d="
		M75,2.754c-26.408,0-47.815,21.408-47.815,47.815c0,64,47.815,96.676,47.815,96.676s47.778-32.65,47.814-96.604
		c0-0.024,0.002-0.048,0.002-0.072C122.815,24.162,101.408,2.754,75,2.754z M75,74.412c-12.615,0-22.842-10.227-22.842-22.842
		S62.384,28.728,75,28.728c12.615,0,22.842,10.227,22.842,22.842S87.614,74.412,75,74.412z"/>
	<path fill="none" stroke="#000000" stroke-width="2" stroke-linecap="round" stroke-linejoin="round" stroke-miterlimit="10" d="
		M94.425,128.623c-6.592,6.877-17.512,7.108-24.389,0.517c-5.501-5.274-5.686-14.01-0.413-19.511
		c4.219-4.401,11.208-4.55,15.609-0.331c3.521,3.376,3.64,8.966,0.264,12.487c-2.7,2.816-7.172,2.911-9.989,0.211
		c-2.253-2.16-2.329-5.737-0.169-7.991c1.729-1.803,4.591-1.863,6.394-0.136c1.442,1.383,1.49,3.673,0.107,5.115
		c-1.105,1.153-2.938,1.192-4.091,0.086c-0.924-0.885-0.954-2.35-0.069-3.272"/>
	<path fill="none" stroke="#000000" stroke-width="2" stroke-linecap="round" stroke-linejoin="round" stroke-miterlimit="10" d="
		M31.378,30.972c1.889-4.648,7.189-6.885,11.837-4.996c3.719,1.511,5.508,5.751,3.997,9.47c-1.209,2.975-4.601,4.407-7.576,3.198
		c-2.38-0.967-3.525-3.681-2.558-6.061c0.774-1.904,2.945-2.82,4.849-2.046c1.523,0.619,2.256,2.355,1.637,3.878
		c-0.495,1.219-1.885,1.805-3.103,1.31c-0.975-0.396-1.444-1.508-1.048-2.482c0.317-0.78,1.206-1.155,1.986-0.838"/>
</g>
</svg>
