<?xml version="1.0" encoding="utf-8"?>
<!-- Generator: Adobe Illustrator 16.0.0, SVG Export Plug-In . SVG Version: 6.00 Build 0)  -->
<!DOCTYPE svg PUBLIC "-//W3C//DTD SVG 1.1//EN" "http://www.w3.org/Graphics/SVG/1.1/DTD/svg11.dtd">
<svg version="1.1" id="Calque_1" xmlns="http://www.w3.org/2000/svg" xmlns:xlink="http://www.w3.org/1999/xlink" x="0px" y="0px"
	 width="150px" height="150px" viewBox="0 0 150 150" enable-background="new 0 0 150 150" xml:space="preserve">
<path fill="#FFFFFF" stroke="#000000" stroke-width="2" stroke-linecap="round" stroke-linejoin="round" stroke-miterlimit="10" d="
	M16.421,146.414c0,0,19.811-143.081,116.482-143.081c0,0-20.36,14.858-28.248,41.641l-33.937-4.954l28.25,9.539
	c0,0-41.472,6.189-54.863,40.491c0,0-15.306,14.813-18.792,27.104l5.416,5.229C30.729,122.383,21.557,126.049,16.421,146.414"/>
<path fill="#FFFFFF" stroke="#000000" stroke-width="2" stroke-linecap="round" stroke-linejoin="round" stroke-miterlimit="10" d="
	M25.313,117.154c0,0,30.159-113.821,107.59-113.821c-68.049,0-98.013,70.895-109.792,112.878L25.313,117.154z"/>
<path fill="none" stroke="#000000" stroke-width="2" stroke-linecap="round" stroke-linejoin="round" stroke-miterlimit="10" d="
	M91.24,15.632c4.109-2.904,9.795-1.927,12.699,2.183c2.323,3.288,1.541,7.836-1.746,10.159c-2.631,1.859-6.27,1.233-8.128-1.397
	c-1.487-2.104-0.986-5.015,1.117-6.502c1.684-1.189,4.013-0.789,5.202,0.894c0.951,1.347,0.631,3.21-0.716,4.162
	c-1.077,0.761-2.567,0.505-3.328-0.572c-0.609-0.862-0.404-2.054,0.457-2.664c0.689-0.487,1.644-0.323,2.131,0.366"/>
<path fill="none" stroke="#000000" stroke-width="2" stroke-linecap="round" stroke-linejoin="round" stroke-miterlimit="10" d="
	M74.662,57.892c-3.668,1.954-8.226,0.563-10.179-3.104c-1.563-2.935-0.451-6.581,2.483-8.143c2.348-1.25,5.265-0.361,6.515,1.987
	c1,1.878,0.289,4.211-1.589,5.212c-1.503,0.8-3.37,0.23-4.169-1.272c-0.64-1.202-0.185-2.695,1.017-3.335
	c0.962-0.512,2.156-0.147,2.668,0.814c0.41,0.77,0.118,1.725-0.651,2.135c-0.616,0.328-1.38,0.095-1.708-0.521"/>
<path fill="none" stroke="#000000" stroke-width="2" stroke-linecap="round" stroke-linejoin="round" stroke-miterlimit="10" d="
	M28.969,109.103c0,0,4.112-6.315,11.029-8.065"/>
<path fill="none" stroke="#000000" stroke-width="2" stroke-linecap="round" stroke-linejoin="round" stroke-miterlimit="10" d="
	M27.327,111.945c0,0,3.005-4.742,10.088-5.242"/>
<path fill="none" stroke="#000000" stroke-width="2" stroke-linecap="round" stroke-linejoin="round" stroke-miterlimit="10" d="
	M26.248,114.87c0,0,3.583-2.416,9.75-2.083"/>
<path fill="#FFFFFF" d="M16.421,148h104.913c0,0-12.959-1.25-18.084-0.625s-19,0.275-21.5-0.175s-24.5-0.8-30.875,0
	S16.421,148,16.421,148z"/>
<g>
	<defs>
		<path id="SVGID_1_" d="M129.291,3.417c1.192-0.055,2.396-0.083,3.612-0.083c-1.349,0-2.677,0.038-3.995,0.093
			c-0.36,0.015-0.719,0.034-1.076,0.053c-1.085,0.058-2.16,0.133-3.225,0.227c-0.244,0.021-0.49,0.038-0.733,0.061
			c-1.27,0.122-2.524,0.272-3.766,0.445c-0.3,0.042-0.596,0.09-0.894,0.135c-0.998,0.149-1.986,0.314-2.965,0.496
			c-0.311,0.058-0.621,0.112-0.93,0.172c-1.206,0.237-2.402,0.494-3.581,0.778c-0.171,0.041-0.339,0.088-0.51,0.131
			c-1.026,0.254-2.042,0.527-3.047,0.816c-0.315,0.091-0.63,0.182-0.942,0.276c-1.057,0.316-2.103,0.648-3.135,1.002
			c-0.098,0.033-0.196,0.063-0.293,0.097c-1.123,0.389-2.228,0.806-3.322,1.238c-0.286,0.113-0.57,0.23-0.855,0.346
			c-0.885,0.36-1.762,0.734-2.629,1.121c-0.229,0.103-0.461,0.201-0.689,0.305c-1.055,0.482-2.096,0.984-3.124,1.504
			c-0.219,0.111-0.434,0.227-0.651,0.339c-0.841,0.435-1.674,0.883-2.498,1.343c-0.263,0.146-0.525,0.292-0.786,0.44
			c-0.999,0.572-1.989,1.156-2.963,1.763c-0.07,0.044-0.139,0.09-0.208,0.134c-0.909,0.57-1.804,1.158-2.69,1.757
			c-0.255,0.173-0.51,0.348-0.764,0.523c-0.817,0.564-1.626,1.14-2.425,1.729c-0.132,0.097-0.267,0.191-0.397,0.289
			c-0.914,0.682-1.814,1.381-2.704,2.093c-0.222,0.177-0.439,0.358-0.66,0.537c-0.716,0.583-1.424,1.175-2.123,1.776
			c-0.202,0.174-0.406,0.345-0.606,0.521c-0.857,0.748-1.704,1.508-2.537,2.283c-0.146,0.136-0.289,0.276-0.436,0.413
			c-0.703,0.661-1.396,1.332-2.083,2.01c-0.214,0.212-0.428,0.423-0.641,0.637c-1.616,1.625-3.185,3.298-4.707,5.014
			c-0.2,0.225-0.397,0.452-0.596,0.678c-0.63,0.72-1.252,1.447-1.865,2.181c-0.135,0.162-0.272,0.32-0.406,0.482
			c-0.728,0.879-1.442,1.768-2.148,2.665c-0.161,0.205-0.318,0.412-0.479,0.618c-0.571,0.735-1.136,1.476-1.692,2.222
			c-0.168,0.225-0.337,0.449-0.504,0.676c-0.679,0.921-1.349,1.848-2.006,2.782c-0.08,0.115-0.158,0.231-0.239,0.346
			c-0.581,0.834-1.153,1.673-1.718,2.516c-0.17,0.253-0.338,0.506-0.506,0.76c-0.58,0.876-1.152,1.757-1.714,2.643
			c-0.051,0.08-0.104,0.159-0.154,0.239c-0.611,0.968-1.209,1.941-1.799,2.919c-0.149,0.246-0.296,0.493-0.443,0.74
			c-0.479,0.801-0.95,1.604-1.415,2.41c-0.118,0.206-0.239,0.412-0.357,0.618c-0.561,0.981-1.11,1.966-1.651,2.953
			c-0.108,0.198-0.215,0.397-0.322,0.596c-0.445,0.82-0.884,1.643-1.315,2.466c-0.134,0.254-0.267,0.507-0.398,0.761
			c-0.519,0.999-1.029,1.999-1.528,3c-0.022,0.044-0.043,0.089-0.065,0.133c-0.478,0.961-0.944,1.922-1.404,2.884
			c-0.124,0.258-0.246,0.516-0.369,0.774c-0.414,0.875-0.822,1.75-1.222,2.623c-0.063,0.139-0.127,0.275-0.189,0.412
			c-0.456,1-0.901,2-1.338,3c-0.104,0.234-0.204,0.469-0.306,0.703c-0.354,0.816-0.703,1.631-1.046,2.445
			c-0.093,0.221-0.188,0.443-0.279,0.664c-0.414,0.994-0.821,1.984-1.218,2.973c-0.06,0.148-0.117,0.297-0.177,0.445
			c-0.342,0.857-0.678,1.711-1.007,2.563c-0.094,0.24-0.187,0.482-0.279,0.723c-0.755,1.969-1.474,3.918-2.16,5.842
			c-0.081,0.229-0.161,0.457-0.242,0.684c-0.29,0.822-0.574,1.639-0.853,2.451c-0.052,0.15-0.104,0.301-0.155,0.451
			c-0.324,0.951-0.64,1.896-0.947,2.832c-0.056,0.17-0.109,0.336-0.164,0.504c-0.261,0.797-0.516,1.588-0.764,2.373
			c-0.059,0.186-0.118,0.371-0.177,0.557c-0.291,0.926-0.575,1.844-0.851,2.752c-0.012,0.039-0.023,0.076-0.035,0.117
			c-0.262,0.861-0.515,1.713-0.762,2.557c-0.053,0.18-0.105,0.359-0.157,0.539c-0.267,0.916-0.527,1.822-0.777,2.713l0.001,0.002
			c-4.954,17.656-6.691,30.201-6.691,30.201c5.136-20.365,14.308-24.031,14.308-24.031l-5.415-5.229
			c0.486-1.715,1.208-3.479,2.081-5.244l10.021-5.207c-6.133,0.432-9.204,4.041-9.919,5.002
			c5.422-10.824,16.609-21.654,16.609-21.654c13.391-34.302,54.862-40.492,54.862-40.492L70.719,40.02l33.937,4.954
			c7.888-26.783,28.248-41.641,28.248-41.641C131.685,3.333,130.486,3.372,129.291,3.417z"/>
	</defs>
	<defs>
		<path id="SVGID_2_" d="M39.998,101.037c-6.917,1.75-11.029,8.064-11.029,8.064L39.998,101.037z"/>
	</defs>
	<defs>
		<path id="SVGID_3_" d="M35.998,112.787c-6.167-0.334-9.75,2.082-9.75,2.082L35.998,112.787z"/>
	</defs>
	<defs>
		<path id="SVGID_4_" d="M103.25,147.375c-5.125,0.625-19,0.275-21.5-0.176c-2.5-0.449-24.5-0.799-30.875,0
			c-6.176,0.775-32.721,0.799-34.373,0.801h104.832C121.334,148,108.375,146.75,103.25,147.375z"/>
	</defs>
	<clipPath id="SVGID_5_">
		<use xlink:href="#SVGID_1_"  overflow="visible"/>
	</clipPath>
	<clipPath id="SVGID_6_" clip-path="url(#SVGID_5_)">
		<use xlink:href="#SVGID_2_"  overflow="visible"/>
	</clipPath>
	<clipPath id="SVGID_7_" clip-path="url(#SVGID_6_)">
		<use xlink:href="#SVGID_3_"  overflow="visible"/>
	</clipPath>
	<clipPath id="SVGID_8_" clip-path="url(#SVGID_7_)">
		<use xlink:href="#SVGID_4_"  overflow="visible"/>
	</clipPath>
	<circle clip-path="url(#SVGID_8_)" fill="#6D150E" cx="4.571" cy="148" r="5.667"/>
	<circle clip-path="url(#SVGID_8_)" fill="#6D150E" cx="100.237" cy="87.897" r="5.667"/>
	<circle clip-path="url(#SVGID_8_)" fill="#6D150E" cx="41.665" cy="-2.333" r="5.667"/>
</g>
</svg>
